<svg xmlns="http://www.w3.org/2000/svg" id="main-footer" viewBox="0.6533200740814209 0 238.2756805419922 20.999900817871094">
      <path d="M35.5982 1.04717V0.275513H30.5825L26.0077 6.66921H24.9604V0.275513H20.2754V18.1338H24.9604V11.0787H26.0628L31.0785 18.1338H36.2045V17.3621L29.8659 8.7637L35.5982 1.04717Z" fill="#262A82"/>
      <path xmlns="http://www.w3.org/2000/svg" d="M66.7952 8.98425C67.8975 8.04724 68.6141 6.83465 68.6141 5.40158C68.6141 2.14961 65.3621 0 61.6141 0C59.74 0 57.3148 0.330709 56.0471 0.826772V5.51181C57.5904 4.90551 59.9054 4.51969 61.3385 4.51969C62.5511 4.51969 63.8188 4.90551 63.8188 6.00787C63.8188 6.94488 62.5511 7.27559 61.3385 7.27559H58.8582V11.0236H61.8897C63.0471 11.0236 64.37 11.2992 64.37 12.4016C64.37 13.5039 62.8818 13.8898 61.3936 13.8898C59.9054 13.8898 57.6456 13.6142 55.8267 12.8976V17.5827C57.0944 18.0787 59.7952 18.4095 61.6692 18.4095C65.6377 18.4095 69.2204 16.2598 69.2204 13.0079C69.1101 11.2992 68.1731 9.92126 66.7952 8.98425Z" fill="#262A82"/>
      <path xmlns="http://www.w3.org/2000/svg" d="M95.4013 0.606323L89.7793 16.8662V18.1339H94.4092L98.2675 6.0079H98.3777L102.016 18.1339H106.976V16.8662L101.299 0.606323H95.4013Z" fill="#262A82"/>
      <path xmlns="http://www.w3.org/2000/svg" d="M46.4565 0.275513H38.9053V18.1338H43.5903V13.2283H46.4565C50.2045 13.2283 53.236 10.307 53.236 6.72433C53.236 3.14165 50.2045 0.275513 46.4565 0.275513ZM46.4565 8.7637H43.5903V4.7952H46.4565C47.5588 4.7952 48.3856 5.73221 48.3856 6.77945C48.3856 7.82669 47.5588 8.7637 46.4565 8.7637Z" fill="#262A82"/>
      <path xmlns="http://www.w3.org/2000/svg" d="M146.717 6.66921H140.488V0.275513H135.748V18.1338H140.488V11.0787H146.717V18.1338H151.402V0.275513H146.717V6.66921Z" fill="#262A82"/>
      <path xmlns="http://www.w3.org/2000/svg" d="M191.968 0.275513H187.228V13.6141H181.386V0.275513H176.701V18.1338H189.874V20.9999H193.842L194.394 13.6692H191.968V0.275513Z" fill="#262A82"/>
      <path xmlns="http://www.w3.org/2000/svg" d="M196.764 6.77945C196.764 8.92906 197.866 10.8582 199.52 12.0157L196.433 17.3621V18.1338H201.118L203.819 13.118H206.74V18.1338H211.425V0.275513H203.543C199.795 0.275513 196.764 3.14165 196.764 6.77945ZM206.74 9.20465H203.543C202.441 9.20465 201.614 8.21252 201.614 6.99992C201.614 5.78732 202.496 4.7952 203.543 4.7952H206.74V9.20465Z" fill="#262A82"/>
      <path xmlns="http://www.w3.org/2000/svg" d="M160.661 10.6928V0.275513H155.976V18.1338H160.496L167.441 7.77158V18.1338H172.126V0.275513H167.606L160.661 10.6928Z" fill="#262A82"/>
      <path xmlns="http://www.w3.org/2000/svg" d="M114.748 0.275513H110.062V18.1338H114.748V0.275513Z" fill="#262A82"/>
      <path xmlns="http://www.w3.org/2000/svg" d="M130.015 8.98425C131.118 8.04724 131.834 6.83465 131.834 5.40158C131.834 2.14961 128.582 0 124.834 0C122.96 0 120.535 0.330709 119.267 0.826772V5.51181C120.811 4.90551 123.126 4.51969 124.559 4.51969C125.771 4.51969 127.039 4.90551 127.039 6.00787C127.039 6.94488 125.771 7.27559 124.559 7.27559H122.078V11.0236H125.11C126.267 11.0236 127.59 11.2992 127.59 12.4016C127.59 13.5039 126.102 13.8898 124.614 13.8898C123.126 13.8898 120.866 13.6142 119.047 12.8976V17.5827C120.315 18.0787 123.015 18.4095 124.889 18.4095C128.858 18.4095 132.441 16.2598 132.441 13.0079C132.33 11.2992 131.448 9.92126 130.015 8.98425Z" fill="#262A82"/>
      <path xmlns="http://www.w3.org/2000/svg" d="M76.6059 0.606323L70.9287 16.811V18.0788H75.5586L76.4956 15.0473H82.4484L83.4405 18.0788H88.2909V16.811L82.3933 0.606323H76.6059ZM77.7634 11.2441L79.4169 5.89766H79.5271L81.1807 11.2441H77.7634Z" fill="#262A82"/>
      <path xmlns="http://www.w3.org/2000/svg" d="M9.58246 9.20465L5.61395 0.275513H0.65332V1.04717L6.93679 14.4409L5.4486 17.4172V18.244H10.3541L18.2911 1.04717V0.275513H13.6612L9.69269 9.20465H9.58246Z" fill="#262A82"/>
      <path xmlns="http://www.w3.org/2000/svg" d="M234.079 7.88181L232.094 3.74795C230.992 1.59835 228.622 0.275513 226.197 0.275513H220.079H215.945V7.88181H234.079Z" fill="#262A82"/>
      <path xmlns="http://www.w3.org/2000/svg" d="M235.291 10.4723H216V18.1337H220.079H238.929L235.291 10.4723Z" fill="#262A82"/>
   </svg>